<?xml version="1.0" encoding="UTF-8" standalone="no"?>
<!DOCTYPE svg PUBLIC "-//W3C//DTD SVG 1.1//EN" "http://www.w3.org/Graphics/SVG/1.1/DTD/svg11.dtd">
<svg width="100%" height="100%" viewBox="0 0 197 221" version="1.1" xmlns="http://www.w3.org/2000/svg" xmlns:xlink="http://www.w3.org/1999/xlink" xml:space="preserve" xmlns:serif="http://www.serif.com/" style="fill-rule:evenodd;clip-rule:evenodd;stroke-linejoin:round;stroke-miterlimit:2;">
    <g transform="matrix(1,0,0,1,-106.332,-291.16)">
        <g transform="matrix(1,0,0,1,241.768,389.104)">
            <path d="M0,-64.2L-33.098,-9.774L-44.695,-28.636L-11.454,-83.055L0,-64.2ZM-6.312,33.744L59.39,33.744L4.255,-57.266L-9.436,-34.515L19.095,12.72L6.422,12.72L-6.312,33.744ZM-98.427,33.744L-85.694,12.72L-0.82,12.72L-13.553,33.744L-98.427,33.744ZM-132.781,33.744L-105.972,33.744L-26.081,-97.944L-53.276,-97.944L-132.781,33.744Z" style="fill:rgb(220,133,61);"/>
        </g>
        <g transform="matrix(1,0,0,1,124.337,435.746)">
            <path d="M0,23.287L-5.235,23.287L-13.203,13.567C-13.47,13.26 -13.603,12.825 -13.603,12.275C-13.603,11.594 -13.375,10.978 -12.92,10.423C-12.464,9.873 -11.77,9.599 -10.836,9.599L-6.202,9.599C-5.735,9.599 -5.362,9.467 -5.084,9.203C-4.807,8.944 -4.668,8.614 -4.668,8.219L-4.668,5.794C-4.668,5.294 -4.773,4.898 -4.984,4.618C-5.196,4.332 -5.568,4.189 -6.101,4.189L-14.003,4.189L-14.003,23.287L-18.005,23.287L-18.005,0L-5.602,0C-4.045,0 -2.8,0.55 -1.867,1.649C-1.044,2.639 -0.633,3.793 -0.633,5.112L-0.633,8.972C-0.633,10.225 -1.117,11.341 -2.083,12.319C-3.051,13.298 -4.079,13.787 -5.168,13.787L-7.835,13.787L0,23.287Z" style="fill:white;fill-rule:nonzero;"/>
        </g>
        <g transform="matrix(-1,0,0,1,257.377,299.503)">
            <rect x="126.671" y="136.243" width="4.035" height="23.287" style="fill:white;"/>
        </g>
        <g transform="matrix(1,0,0,1,149.344,435.746)">
            <path d="M0,23.287L-8.703,23.287C-10.681,23.287 -12.209,22.765 -13.287,21.72C-14.365,20.676 -14.904,19.175 -14.904,17.218L-14.904,0L-10.803,0L-10.803,17.184C-10.803,17.889 -10.647,18.383 -10.336,18.669C-10.025,18.955 -9.492,19.098 -8.736,19.098L0,19.098L0,23.287Z" style="fill:white;fill-rule:nonzero;"/>
        </g>
        <g transform="matrix(-1,0,0,1,306.522,299.503)">
            <rect x="151.244" y="136.243" width="4.034" height="23.287" style="fill:white;"/>
        </g>
        <g transform="matrix(1,0,0,1,175.75,442.474)">
            <path d="M0,9.83C0,12.183 -0.562,13.892 -1.684,14.959C-2.807,16.025 -4.635,16.559 -7.168,16.559L-9.569,16.559C-12.103,16.559 -13.932,16.025 -15.054,14.959C-16.177,13.892 -16.738,12.183 -16.738,9.83L-16.738,0C-16.738,-2.353 -16.177,-4.063 -15.054,-5.129C-13.932,-6.195 -12.103,-6.729 -9.569,-6.729L-7.168,-6.729C-4.635,-6.729 -2.807,-6.195 -1.684,-5.129C-0.562,-4.063 0,-2.353 0,0L0,9.83ZM-4.168,10.027L-4.168,-0.132C-4.168,-1.055 -4.351,-1.688 -4.718,-2.028C-5.085,-2.369 -5.724,-2.539 -6.635,-2.539L-10.07,-2.539C-10.981,-2.539 -11.631,-2.369 -12.02,-2.028C-12.409,-1.688 -12.604,-1.055 -12.604,-0.132L-12.604,9.962C-12.604,10.885 -12.409,11.517 -12.02,11.858C-11.631,12.199 -10.981,12.369 -10.07,12.369L-6.635,12.369C-5.59,12.369 -4.918,12.221 -4.618,11.924C-4.318,11.627 -4.168,10.995 -4.168,10.027" style="fill:white;fill-rule:nonzero;"/>
        </g>
        <g transform="matrix(1,0,0,1,196.189,439.077)">
            <path d="M0,16.822C0,17.922 -0.294,18.785 -0.884,19.411C-1.473,20.038 -2.189,20.351 -3.034,20.351C-3.768,20.351 -4.451,20.132 -5.085,19.692C-5.718,19.252 -6.213,18.593 -6.568,17.713L-12.27,3.892L-12.27,19.956L-16.371,19.956L-16.371,0.33C-16.371,-0.902 -16.071,-1.852 -15.471,-2.523C-14.871,-3.194 -14.148,-3.529 -13.303,-3.529C-12.614,-3.529 -11.948,-3.304 -11.303,-2.853C-10.659,-2.402 -10.169,-1.77 -9.836,-0.956L-4.135,13.128L-4.135,-3.265L0,-3.265L0,16.822Z" style="fill:white;fill-rule:nonzero;"/>
        </g>
        <g transform="matrix(1,0,0,1,216.927,442.079)">
            <path d="M0,10.621C0,12.71 -0.517,14.287 -1.55,15.354C-2.584,16.421 -4.068,16.954 -6.001,16.954L-10.402,16.954C-12.447,16.954 -14.004,16.404 -15.07,15.305C-16.137,14.205 -16.671,12.677 -16.671,10.72L-16.671,0.033C-16.671,-4.211 -14.559,-6.333 -10.336,-6.333L-1.434,-6.333L-1.434,-2.144L-10.603,-2.144C-11.381,-2.144 -11.897,-2.006 -12.153,-1.732C-12.409,-1.457 -12.537,-0.945 -12.537,-0.197L-12.537,10.918C-12.537,12.149 -11.836,12.765 -10.436,12.765L-6.001,12.765C-4.757,12.765 -4.134,12.171 -4.134,10.983L-4.134,3.299L0,3.299L0,10.621Z" style="fill:rgb(220,133,61);fill-rule:nonzero;"/>
        </g>
        <g transform="matrix(1,0,0,1,238.666,435.746)">
            <path d="M0,23.287L-5.235,23.287L-13.204,13.567C-13.47,13.26 -13.604,12.825 -13.604,12.275C-13.604,11.594 -13.376,10.978 -12.92,10.423C-12.464,9.873 -11.77,9.599 -10.836,9.599L-6.202,9.599C-5.735,9.599 -5.363,9.467 -5.085,9.203C-4.807,8.944 -4.668,8.614 -4.668,8.219L-4.668,5.794C-4.668,5.294 -4.774,4.898 -4.985,4.618C-5.196,4.332 -5.568,4.189 -6.102,4.189L-14.004,4.189L-14.004,23.287L-18.005,23.287L-18.005,0L-5.602,0C-4.046,0 -2.801,0.55 -1.867,1.649C-1.045,2.639 -0.634,3.793 -0.634,5.112L-0.634,8.972C-0.634,10.225 -1.117,11.341 -2.084,12.319C-3.051,13.298 -4.079,13.787 -5.168,13.787L-7.835,13.787L0,23.287Z" style="fill:rgb(220,133,61);fill-rule:nonzero;"/>
        </g>
        <g transform="matrix(1,0,0,1,259.872,435.549)">
            <path d="M0,23.484L-4.334,23.484L-6.001,18.866L-14.871,18.866L-16.538,23.484L-20.872,23.484L-13.403,2.671C-12.759,0.89 -11.759,0 -10.402,0C-9.069,0 -8.08,0.89 -7.435,2.671L0,23.484ZM-7.502,14.677L-10.469,6.431L-13.37,14.677L-7.502,14.677Z" style="fill:rgb(220,133,61);fill-rule:nonzero;"/>
        </g>
        <g transform="matrix(1,0,0,1,276.776,454.844)">
            <path d="M0,-14.909L-9.236,-14.909C-10.458,-14.909 -11.07,-14.282 -11.07,-13.029L-11.07,-1.881C-11.07,-1.352 -10.897,-0.907 -10.553,-0.545C-10.208,-0.181 -9.77,-0.001 -9.236,-0.001L-0.067,-0.001L-0.067,4.189L-9.903,4.189C-11.303,4.189 -12.514,3.66 -13.537,2.606C-14.626,1.484 -15.17,0.066 -15.17,-1.649L-15.17,-13.128C-15.17,-14.931 -14.654,-16.377 -13.621,-17.466C-12.587,-18.555 -11.27,-19.098 -9.669,-19.098L0,-19.098L0,-14.909Z" style="fill:rgb(220,133,61);fill-rule:nonzero;"/>
        </g>
        <g transform="matrix(-1,0,0,1,563.721,299.503)">
            <rect x="279.843" y="136.243" width="4.035" height="23.287" style="fill:rgb(220,133,61);"/>
        </g>
        <g transform="matrix(1,0,0,1,302.916,454.844)">
            <path d="M0,-14.909L-9.703,-14.909C-10.103,-14.909 -10.453,-14.739 -10.752,-14.398C-11.053,-14.057 -11.203,-13.568 -11.203,-12.93L-11.203,-9.632L-0.033,-9.632L-0.033,-5.443L-11.203,-5.443L-11.203,-1.551C-11.203,-0.913 -10.958,-0.495 -10.469,-0.298C-9.98,-0.099 -9.213,-0.001 -8.168,-0.001L-0.1,-0.001L-0.1,4.189L-9.036,4.189C-11.058,4.189 -12.609,3.633 -13.687,2.523C-14.765,1.412 -15.304,-0.187 -15.304,-2.276L-15.304,-13.029C-15.304,-15.074 -14.748,-16.596 -13.637,-17.597C-12.525,-18.597 -10.792,-19.098 -8.435,-19.098L0,-19.098L0,-14.909Z" style="fill:rgb(220,133,61);fill-rule:nonzero;"/>
        </g>
        <g transform="matrix(1,0,0,1,262.561,505.671)">
            <path d="M0,-2.141L0,5.367L-2.053,5.367C-2.059,5.237 -2.068,5.125 -2.068,5.013C-2.069,1.341 -2.071,-2.329 -2.063,-6C-2.063,-6.271 -2.034,-6.558 -1.94,-6.808C-1.634,-7.633 -0.696,-7.812 -0.123,-7.142C0.118,-6.861 0.279,-6.503 0.437,-6.162C1.507,-3.852 2.566,-1.537 3.686,0.772L3.686,-7.318L5.805,-7.318L5.805,-6.965C5.805,-3.364 5.806,0.239 5.802,3.84C5.801,4.104 5.783,4.371 5.734,4.629C5.657,5.043 5.47,5.406 5.035,5.532C4.56,5.671 4.06,5.665 3.734,5.246C3.387,4.796 3.078,4.304 2.835,3.792C1.925,1.874 1.049,-0.06 0.16,-1.988C0.132,-2.046 0.101,-2.102 0.071,-2.16C0.047,-2.153 0.024,-2.147 0,-2.141" style="fill:rgb(220,133,61);fill-rule:nonzero;"/>
        </g>
        <g transform="matrix(1,0,0,1,228.111,500.499)">
            <path d="M0,8.375C0.039,8.394 0.059,8.41 0.079,8.41C0.803,8.414 1.527,8.419 2.251,8.42C3.561,8.422 3.708,8.271 3.709,6.935C3.71,5.106 3.711,3.278 3.707,1.45C3.706,1.187 3.683,0.922 3.646,0.66C3.58,0.194 3.323,-0.026 2.855,-0.028C1.982,-0.032 1.108,-0.03 0.234,-0.028C0.158,-0.028 0.081,-0.012 0,-0.002L0,8.375ZM-2.132,10.539L-2.132,-2.173L-1.755,-2.173C-0.018,-2.173 1.719,-2.156 3.456,-2.178C4.959,-2.196 5.756,-1.239 5.778,0.079C5.825,2.862 5.811,5.647 5.784,8.431C5.771,9.738 4.917,10.55 3.618,10.559C1.8,10.571 -0.018,10.563 -1.835,10.562C-1.925,10.562 -2.015,10.548 -2.132,10.539" style="fill:rgb(220,133,61);fill-rule:nonzero;"/>
        </g>
        <g transform="matrix(1,0,0,1,242.442,498.383)">
            <path d="M0,12.678L-0.608,12.678C-1.932,12.678 -3.257,12.645 -4.579,12.687C-6.281,12.74 -6.943,11.627 -6.944,10.324C-6.946,7.687 -6.95,5.051 -6.938,2.414C-6.937,2.086 -6.882,1.749 -6.792,1.432C-6.533,0.512 -5.783,-0.05 -4.828,-0.054C-3.309,-0.062 -1.789,-0.057 -0.27,-0.056C-0.192,-0.056 -0.114,-0.044 -0.019,-0.036L-0.019,2.085L-0.399,2.085C-1.573,2.085 -2.748,2.084 -3.922,2.086C-4.492,2.086 -4.759,2.286 -4.804,2.866C-4.86,3.587 -4.845,4.314 -4.864,5.037C-4.871,5.282 -4.693,5.239 -4.551,5.239C-3.435,5.241 -2.318,5.241 -1.201,5.241L-0.133,5.241C-0.133,5.921 -0.13,6.563 -0.135,7.204C-0.137,7.45 -0.335,7.38 -0.468,7.381C-1.792,7.385 -3.116,7.383 -4.44,7.383L-4.903,7.383C-4.859,8.261 -4.855,9.11 -4.761,9.948C-4.708,10.421 -4.495,10.531 -3.977,10.533C-2.769,10.539 -1.56,10.542 -0.351,10.531C-0.09,10.529 0.018,10.587 0.007,10.873C-0.015,11.457 0,12.043 0,12.678" style="fill:rgb(220,133,61);fill-rule:nonzero;"/>
        </g>
        <g transform="matrix(1,0,0,1,277.012,511.001)">
            <path d="M0,-12.643L0,-10.533L-0.375,-10.533C-1.607,-10.533 -2.838,-10.533 -4.07,-10.532C-4.63,-10.532 -4.873,-10.401 -4.932,-9.858C-4.997,-9.261 -4.97,-8.644 -4.898,-8.046C-4.847,-7.621 -4.604,-7.494 -4.162,-7.485C-3.323,-7.468 -2.481,-7.49 -1.646,-7.425C-0.796,-7.359 -0.282,-6.809 -0.024,-6.033C0.079,-5.722 0.122,-5.38 0.128,-5.051C0.147,-4.073 0.158,-3.093 0.126,-2.116C0.1,-1.31 -0.167,-0.597 -0.932,-0.191C-1.15,-0.075 -1.407,0.029 -1.647,0.031C-3.408,0.049 -5.168,0.042 -6.955,0.042L-6.955,-2.081L-6.507,-2.081C-5.333,-2.081 -4.159,-2.081 -2.985,-2.082C-2.251,-2.082 -2.038,-2.222 -1.967,-2.943C-1.913,-3.497 -1.941,-4.07 -2.011,-4.624C-2.083,-5.195 -2.323,-5.35 -2.905,-5.351C-3.584,-5.353 -4.264,-5.35 -4.943,-5.353C-6.084,-5.357 -6.965,-6.08 -7.035,-7.22C-7.11,-8.434 -7.104,-9.66 -7.037,-10.874C-6.979,-11.898 -6.147,-12.648 -5.134,-12.664C-3.465,-12.692 -1.795,-12.673 -0.126,-12.672C-0.094,-12.672 -0.062,-12.658 0,-12.643" style="fill:rgb(220,133,61);fill-rule:nonzero;"/>
        </g>
        <g transform="matrix(1,0,0,1,188.609,498.308)">
            <path d="M0,12.733L0,10.612L0.387,10.612C1.606,10.612 2.826,10.613 4.045,10.611C4.709,10.61 4.945,10.451 4.995,9.797C5.041,9.195 5.01,8.581 4.949,7.978C4.905,7.54 4.63,7.348 4.187,7.343C3.474,7.337 2.76,7.343 2.047,7.341C0.862,7.337 -0.021,6.566 -0.074,5.388C-0.126,4.229 -0.122,3.065 -0.076,1.905C-0.034,0.855 0.784,0.05 1.823,0.031C3.502,-0.001 5.182,0.021 6.862,0.022C6.895,0.022 6.927,0.037 6.977,0.048L6.977,2.161L4.99,2.161C4.299,2.161 3.609,2.161 2.919,2.162C2.346,2.163 2.101,2.301 2.035,2.854C1.968,3.418 1.977,4.003 2.05,4.566C2.118,5.081 2.345,5.202 2.864,5.21C3.68,5.223 4.499,5.2 5.31,5.265C6.188,5.336 6.71,5.897 6.962,6.71C7.046,6.98 7.094,7.272 7.098,7.554C7.112,8.589 7.12,9.626 7.094,10.661C7.068,11.711 6.497,12.438 5.551,12.695C5.485,12.712 5.417,12.732 5.349,12.732C3.578,12.734 1.807,12.733 0,12.733" style="fill:rgb(220,133,61);fill-rule:nonzero;"/>
        </g>
        <g transform="matrix(1,0,0,1,203.97,505.799)">
            <path d="M0,-2.182C0,-1.495 -0.006,-0.876 0.002,-0.257C0.006,0.004 -0.167,-0.033 -0.325,-0.033C-1.648,-0.032 -2.972,-0.033 -4.295,-0.033L-4.667,-0.033C-4.667,0.828 -4.704,1.643 -4.653,2.452C-4.622,2.947 -4.367,3.115 -3.86,3.118C-2.652,3.125 -1.444,3.129 -0.236,3.114C0.052,3.111 0.143,3.196 0.133,3.482C0.113,4.056 0.127,4.63 0.127,5.243C-0.007,5.251 -0.118,5.261 -0.228,5.261C-1.666,5.263 -3.105,5.24 -4.543,5.268C-6.068,5.298 -6.795,4.296 -6.804,3.02C-6.822,0.305 -6.822,-2.411 -6.802,-5.125C-6.795,-6.034 -6.488,-6.828 -5.605,-7.256C-5.363,-7.372 -5.08,-7.457 -4.814,-7.46C-3.215,-7.48 -1.615,-7.47 -0.016,-7.47C0.017,-7.47 0.049,-7.454 0.104,-7.441L0.104,-5.33L-0.263,-5.33C-1.448,-5.33 -2.633,-5.331 -3.818,-5.329C-4.325,-5.328 -4.621,-5.145 -4.652,-4.658C-4.704,-3.849 -4.666,-3.036 -4.666,-2.182L0,-2.182Z" style="fill:rgb(220,133,61);fill-rule:nonzero;"/>
        </g>
        <g transform="matrix(1,0,0,1,258.961,511.038)">
            <path d="M0,-12.686L0,-10.57L-1.667,-10.57C-2.426,-10.57 -3.186,-10.572 -3.945,-10.569C-4.435,-10.567 -4.716,-10.378 -4.742,-9.902C-4.785,-9.091 -4.753,-8.276 -4.753,-7.419L-0.129,-7.419L-0.129,-5.281L-4.852,-5.281C-4.814,-4.392 -4.804,-3.544 -4.733,-2.703C-4.698,-2.288 -4.428,-2.123 -3.938,-2.122C-2.752,-2.116 -1.566,-2.12 -0.381,-2.119L0.002,-2.119L0.002,0.001C-0.078,0.009 -0.144,0.022 -0.209,0.022C-1.729,0.023 -3.248,0.033 -4.767,0.019C-6.045,0.007 -6.868,-0.784 -6.889,-2.07C-6.92,-3.911 -6.905,-5.752 -6.906,-7.594C-6.907,-8.572 -6.932,-9.552 -6.886,-10.528C-6.845,-11.385 -6.523,-12.125 -5.68,-12.505C-5.435,-12.616 -5.153,-12.698 -4.887,-12.701C-3.299,-12.719 -1.71,-12.71 -0.122,-12.709C-0.089,-12.709 -0.057,-12.698 0,-12.686" style="fill:rgb(220,133,61);fill-rule:nonzero;"/>
        </g>
        <g transform="matrix(1,0,0,1,285.503,511.069)">
            <path d="M0,-12.743L0,-10.6L-0.375,-10.6C-1.549,-10.6 -2.723,-10.601 -3.896,-10.599C-4.455,-10.599 -4.722,-10.425 -4.756,-9.884C-4.805,-9.096 -4.769,-8.303 -4.769,-7.469L-0.148,-7.469L-0.148,-5.308L-4.874,-5.308C-4.831,-4.422 -4.817,-3.575 -4.739,-2.734C-4.699,-2.307 -4.439,-2.154 -3.945,-2.152C-2.771,-2.146 -1.598,-2.15 -0.424,-2.149L-0.019,-2.149L-0.019,-0.028C-0.103,-0.02 -0.181,-0.009 -0.258,-0.009C-1.766,-0.008 -3.273,0.002 -4.781,-0.013C-6.04,-0.024 -6.886,-0.814 -6.898,-2.072C-6.927,-4.903 -6.928,-7.734 -6.899,-10.565C-6.885,-11.9 -5.971,-12.74 -4.646,-12.742C-3.218,-12.745 -1.792,-12.743 -0.364,-12.743L0,-12.743Z" style="fill:rgb(220,133,61);fill-rule:nonzero;"/>
        </g>
        <g transform="matrix(1,0,0,1,250.593,505.711)">
            <path d="M0,-2.089L0,0.05L-4.689,0.05L-4.689,5.319L-6.786,5.319C-6.791,5.193 -6.8,5.082 -6.8,4.97C-6.801,1.736 -6.803,-1.496 -6.799,-4.73C-6.799,-5.272 -6.742,-5.805 -6.484,-6.301C-6.14,-6.961 -5.58,-7.349 -4.863,-7.366C-3.208,-7.408 -1.552,-7.38 0.131,-7.38L0.131,-5.242L-0.245,-5.242C-1.43,-5.242 -2.615,-5.243 -3.8,-5.241C-4.314,-5.24 -4.617,-5.045 -4.649,-4.54C-4.701,-3.741 -4.663,-2.936 -4.663,-2.089L0,-2.089Z" style="fill:rgb(220,133,61);fill-rule:nonzero;"/>
        </g>
        <g transform="matrix(1,0,0,1,220.081,505.734)">
            <path d="M0,-2.123L0,0.019L-4.69,0.019L-4.69,5.307L-6.794,5.307C-6.8,5.189 -6.81,5.079 -6.81,4.969C-6.811,1.734 -6.814,-1.499 -6.807,-4.732C-6.806,-5.297 -6.75,-5.857 -6.467,-6.369C-6.115,-7.008 -5.557,-7.375 -4.853,-7.392C-3.22,-7.43 -1.585,-7.402 0.049,-7.401C0.069,-7.401 0.089,-7.386 0.128,-7.37L0.128,-5.266L-0.233,-5.266C-1.407,-5.266 -2.581,-5.266 -3.755,-5.265C-4.36,-5.265 -4.647,-5.037 -4.673,-4.441C-4.706,-3.685 -4.681,-2.925 -4.681,-2.123L0,-2.123Z" style="fill:rgb(220,133,61);fill-rule:nonzero;"/>
        </g>
        <g transform="matrix(1,0,0,1,205.539,511.091)">
            <path d="M0,-12.747L2.074,-12.747L2.074,-12.295C2.074,-9.451 2.073,-6.608 2.076,-3.765C2.077,-3.477 2.09,-3.188 2.126,-2.904C2.191,-2.378 2.415,-2.178 2.944,-2.175C4.142,-2.168 5.339,-2.173 6.536,-2.172L6.932,-2.172L6.932,-0.052C6.826,-0.045 6.716,-0.031 6.606,-0.031C5.156,-0.029 3.706,-0.049 2.255,-0.025C0.758,0 0.007,-0.931 -0.006,-2.239C-0.043,-5.692 -0.02,-9.146 -0.02,-12.6C-0.02,-12.643 -0.008,-12.686 0,-12.747" style="fill:rgb(220,133,61);fill-rule:nonzero;"/>
        </g>
        <g transform="matrix(1,0,0,1,0,417.279)">
            <rect x="220.899" y="87.963" width="3.996" height="2.071" style="fill:rgb(220,133,61);"/>
        </g>
        <g transform="matrix(1,0,0,1,133.758,511.275)">
            <path d="M0,-13.147L2.142,-13.147L2.142,-12.899C2.142,-9.763 2.14,-6.626 2.145,-3.49C2.146,-3.254 2.17,-3.012 2.226,-2.784C2.313,-2.428 2.576,-2.238 2.946,-2.234C3.626,-2.228 4.306,-2.229 4.986,-2.231C5.584,-2.233 5.889,-2.525 5.923,-3.126C5.932,-3.277 5.93,-3.428 5.93,-3.58C5.931,-6.684 5.931,-9.789 5.931,-12.894L5.931,-13.145L8.065,-13.145C8.068,-13.08 8.074,-13.013 8.074,-12.947C8.074,-9.565 8.076,-6.183 8.073,-2.801C8.072,-2.213 8.007,-1.635 7.759,-1.091C7.435,-0.382 6.873,-0.023 6.106,-0.015C4.746,-0.001 3.385,0 2.025,-0.015C1.117,-0.026 0.431,-0.567 0.184,-1.469C0.075,-1.865 0,-2.284 -0.001,-2.692C-0.016,-6.119 -0.01,-9.544 -0.01,-12.97C-0.01,-13.026 -0.004,-13.081 0,-13.147" style="fill:rgb(220,133,61);fill-rule:nonzero;"/>
        </g>
        <g transform="matrix(1,0,0,1,178.127,511.274)">
            <path d="M0,-13.146L2.144,-13.146L2.144,-12.938C2.144,-9.562 2.146,-6.187 2.142,-2.811C2.141,-2.16 2.069,-1.519 1.747,-0.932C1.405,-0.308 0.858,-0.02 0.167,-0.013C-1.187,-0.001 -2.541,0 -3.895,-0.013C-4.803,-0.023 -5.489,-0.556 -5.745,-1.458C-5.851,-1.829 -5.929,-2.221 -5.931,-2.605C-5.945,-6.069 -5.94,-9.533 -5.94,-12.997C-5.94,-13.04 -5.936,-13.084 -5.933,-13.14L-3.789,-13.14L-3.789,-12.909C-3.789,-9.766 -3.791,-6.624 -3.785,-3.481C-3.785,-3.245 -3.759,-3.003 -3.703,-2.774C-3.62,-2.437 -3.36,-2.239 -3.014,-2.235C-2.271,-2.227 -1.528,-2.224 -0.785,-2.236C-0.331,-2.243 -0.043,-2.581 -0.008,-3.114C0.002,-3.265 0,-3.417 0,-3.568L0,-13.146Z" style="fill:rgb(220,133,61);fill-rule:nonzero;"/>
        </g>
        <g transform="matrix(1,0,0,1,170.518,511.246)">
            <path d="M0,-13.115L0,-10.914L-0.229,-10.914C-1.552,-10.914 -2.874,-10.902 -4.196,-10.919C-4.812,-10.927 -5.062,-10.684 -5.121,-10.052C-5.165,-9.585 -5.139,-9.109 -5.125,-8.638C-5.12,-8.485 -5.071,-8.327 -5.011,-8.184C-4.888,-7.893 -4.652,-7.763 -4.337,-7.764C-3.575,-7.766 -2.813,-7.77 -2.051,-7.762C-0.901,-7.751 -0.154,-7.011 0.041,-5.938C0.098,-5.619 0.115,-5.289 0.118,-4.964C0.127,-4.076 0.127,-3.188 0.116,-2.301C0.111,-1.883 0.025,-1.476 -0.163,-1.098C-0.486,-0.447 -1.028,-0.105 -1.737,-0.014C-1.942,0.012 -2.151,0.017 -2.358,0.018C-3.882,0.02 -5.406,0.019 -6.93,0.019L-7.168,0.019L-7.168,-2.202L-6.948,-2.202C-5.625,-2.202 -4.303,-2.216 -2.98,-2.195C-2.376,-2.186 -2.115,-2.389 -2.065,-2.953C-2.01,-3.588 -2.019,-4.237 -2.083,-4.871C-2.136,-5.395 -2.41,-5.566 -2.94,-5.567C-3.62,-5.567 -4.301,-5.581 -4.98,-5.564C-6.459,-5.526 -7.221,-6.538 -7.276,-7.777C-7.323,-8.851 -7.318,-9.931 -7.275,-11.006C-7.242,-11.843 -6.907,-12.554 -6.086,-12.914C-5.816,-13.032 -5.507,-13.112 -5.214,-13.116C-3.501,-13.135 -1.789,-13.126 -0.076,-13.126C-0.057,-13.126 -0.039,-13.121 0,-13.115" style="fill:rgb(220,133,61);fill-rule:nonzero;"/>
        </g>
        <g transform="matrix(1,0,0,1,157.844,509.059)">
            <path d="M0,-8.733L-2.587,-8.733L-2.587,-10.927L4.695,-10.927L4.695,-8.726L4.476,-8.726C3.771,-8.726 3.065,-8.72 2.36,-8.73C2.187,-8.732 2.14,-8.683 2.141,-8.508C2.146,-5.027 2.145,-1.545 2.145,1.938L2.145,2.194L0,2.194L0,-8.733Z" style="fill:rgb(220,133,61);fill-rule:nonzero;"/>
        </g>
        <g transform="matrix(1,0,0,1,123.745,498.134)">
            <path d="M0,13.15L0,10.911C0.395,10.911 0.783,10.912 1.172,10.911C1.69,10.91 1.95,10.694 2.023,10.179C2.055,9.957 2.07,9.729 2.07,9.504C2.073,6.419 2.072,3.334 2.072,0.248L2.072,-0.003L4.203,-0.003C4.207,0.063 4.212,0.13 4.212,0.197C4.212,3.634 4.214,7.073 4.21,10.51C4.21,11.008 4.164,11.504 3.948,11.964C3.643,12.616 3.121,13.015 2.42,13.08C1.622,13.153 0.814,13.13 0,13.15" style="fill:rgb(220,133,61);fill-rule:nonzero;"/>
        </g>
        <g transform="matrix(1,0,0,1,146.12,498.171)">
            <path d="M0,13.064L0,10.874C0.405,10.874 0.8,10.875 1.195,10.874C1.67,10.873 1.899,10.697 1.995,10.224C2.042,9.992 2.065,9.751 2.066,9.514C2.07,6.417 2.069,3.319 2.069,0.22L2.069,-0.037L4.19,-0.037C4.194,0.026 4.202,0.091 4.202,0.158C4.203,3.601 4.204,7.045 4.202,10.49C4.202,11.008 4.149,11.519 3.909,11.993C3.579,12.643 3.033,13.009 2.324,13.053C1.56,13.101 0.79,13.064 0,13.064" style="fill:rgb(220,133,61);fill-rule:nonzero;"/>
        </g>
        <g transform="matrix(-1,0,0,1,261.702,414.114)">
            <rect x="129.793" y="84.021" width="2.116" height="13.12" style="fill:rgb(220,133,61);"/>
        </g>
        <g transform="matrix(-1,0,0,1,306.433,414.107)">
            <rect x="152.161" y="84.023" width="2.111" height="13.123" style="fill:rgb(220,133,61);"/>
        </g>
        <g transform="matrix(-1,0,0,1,289.8,417.367)">
            <rect x="142.835" y="87.868" width="4.13" height="2.173" style="fill:rgb(220,133,61);"/>
        </g>
        <g transform="matrix(0,1,1,0,184.483,503.131)">
            <path d="M2.206,-2.206C0.987,-2.206 0,-1.219 0,0C0,1.218 0.987,2.206 2.206,2.206C3.424,2.206 4.412,1.218 4.412,0C4.412,-1.219 3.424,-2.206 2.206,-2.206" style="fill:rgb(220,133,61);fill-rule:nonzero;"/>
        </g>
        <g transform="matrix(1,0,0,1,128.685,464.969)">
            <path d="M0,23.304L-3.758,23.304C-3.769,23.126 -3.787,22.958 -3.787,22.789C-3.788,16.124 -3.767,9.459 -3.801,2.793C-3.811,0.837 -2.664,0.093 -1.505,-0.111C0.093,-0.394 1.529,0.406 1.992,1.932C2.747,4.422 3.44,6.931 4.153,9.434C4.774,11.614 5.385,13.794 6.003,15.974C6.041,16.109 6.098,16.239 6.192,16.495C6.394,15.81 6.568,15.236 6.732,14.658C7.867,10.671 9.004,6.686 10.127,2.696C10.414,1.681 10.771,0.724 11.788,0.216C12.914,-0.347 14.032,-0.293 15.093,0.377C15.709,0.766 16.064,1.354 16.152,2.083C16.187,2.37 16.199,2.661 16.2,2.95C16.202,9.519 16.202,16.088 16.202,22.657L16.202,23.294L12.395,23.294L12.395,8.045L12.297,8.031C11.935,9.288 11.573,10.546 11.212,11.804C10.249,15.155 9.287,18.505 8.318,21.855C8.247,22.1 8.138,22.336 8.029,22.569C7.659,23.354 7.018,23.698 6.167,23.694C5.33,23.69 4.664,23.354 4.372,22.56C3.968,21.461 3.625,20.338 3.301,19.213C2.248,15.571 1.216,11.922 0.174,8.277C0.154,8.204 0.113,8.138 0,8.089L0,23.304Z" style="fill:white;fill-rule:nonzero;"/>
        </g>
        <g transform="matrix(1,0,0,1,175.515,479.805)">
            <path d="M0,-6.764L0,8.457L-3.755,8.457C-3.766,8.294 -3.786,8.125 -3.786,7.957C-3.787,1.291 -3.771,-5.374 -3.796,-12.039C-3.804,-13.952 -2.711,-14.729 -1.496,-14.947C0.067,-15.226 1.497,-14.466 1.963,-12.994C2.595,-11.005 3.137,-8.987 3.71,-6.978C4.523,-4.136 5.33,-1.293 6.18,1.697C6.32,1.249 6.425,0.931 6.517,0.609C7.776,-3.81 9.033,-8.23 10.291,-12.65C10.878,-14.713 13.107,-15.631 14.944,-14.561C15.708,-14.116 16.124,-13.444 16.188,-12.56C16.203,-12.368 16.203,-12.174 16.203,-11.981C16.204,-5.364 16.203,1.253 16.203,7.87L16.203,8.457L12.414,8.457L12.414,-6.815C12.382,-6.821 12.351,-6.826 12.319,-6.832C12.087,-6.031 11.855,-5.23 11.625,-4.428C10.531,-0.63 9.439,3.168 8.342,6.965C8.28,7.18 8.195,7.39 8.106,7.596C7.754,8.418 7.143,8.853 6.234,8.86C5.333,8.867 4.649,8.496 4.343,7.645C3.952,6.558 3.622,5.449 3.301,4.339C2.244,0.68 1.203,-2.982 0.154,-6.643C0.142,-6.685 0.118,-6.724 0.099,-6.764L0,-6.764Z" style="fill:white;fill-rule:nonzero;"/>
        </g>
        <g transform="matrix(1,0,0,1,255.783,488.234)">
            <path d="M0,-23C-0.43,-22.26 -0.835,-21.555 -1.247,-20.854C-3.003,-17.857 -4.757,-14.859 -6.527,-11.871C-6.695,-11.589 -6.668,-11.399 -6.513,-11.134C-4.421,-7.569 -2.341,-3.998 -0.26,-0.428C-0.182,-0.295 -0.117,-0.155 -0.011,0.051C-1.429,0.051 -2.774,0.062 -4.119,0.034C-4.25,0.032 -4.411,-0.181 -4.499,-0.33C-6.469,-3.687 -8.431,-7.047 -10.395,-10.407C-10.492,-10.573 -10.593,-10.737 -10.774,-11.038L-10.774,0.023L-14.569,0.023L-14.569,-23.026L-10.82,-23.026L-10.82,-12.092C-10.78,-12.078 -10.74,-12.065 -10.7,-12.053C-10.528,-12.345 -10.354,-12.636 -10.184,-12.929C-8.292,-16.181 -6.403,-19.436 -4.5,-22.682C-4.405,-22.843 -4.181,-23.029 -4.014,-23.033C-2.759,-23.062 -1.502,-23.049 -0.247,-23.046C-0.188,-23.046 -0.129,-23.024 0,-23" style="fill:white;fill-rule:nonzero;"/>
        </g>
        <g transform="matrix(1,0,0,1,268.943,488.285)">
            <path d="M0,-23.074L0,-19.231L-0.534,-19.231C-2.723,-19.231 -4.911,-19.232 -7.1,-19.23C-8.116,-19.23 -8.573,-18.914 -8.654,-17.921C-8.771,-16.483 -8.77,-15.035 -8.821,-13.537L-0.244,-13.537L-0.244,-9.666L-8.653,-9.666C-8.71,-9.606 -8.751,-9.583 -8.75,-9.56C-8.725,-8.099 -8.749,-6.635 -8.65,-5.178C-8.585,-4.228 -8.092,-3.885 -7.124,-3.884C-4.951,-3.881 -2.779,-3.883 -0.606,-3.883L-0.008,-3.883L-0.008,-0.022C-0.163,-0.014 -0.303,0 -0.443,0C-3.131,0.002 -5.819,0.036 -8.506,-0.021C-9.238,-0.038 -10.026,-0.209 -10.679,-0.531C-11.99,-1.18 -12.441,-2.437 -12.532,-3.813C-12.595,-4.759 -12.559,-5.712 -12.559,-6.661C-12.561,-10.572 -12.555,-14.482 -12.563,-18.393C-12.564,-19.423 -12.433,-20.418 -11.906,-21.32C-11.296,-22.364 -10.376,-23.034 -9.174,-23.055C-6.134,-23.11 -3.093,-23.074 0,-23.074" style="fill:white;fill-rule:nonzero;"/>
        </g>
        <g transform="matrix(1,0,0,1,284.123,488.292)">
            <path d="M0,-23.081L0,-19.238L-0.542,-19.238C-2.86,-19.238 -5.178,-19.24 -7.497,-19.237C-8.37,-19.236 -8.842,-18.977 -8.925,-18.132C-9.035,-17.01 -9.017,-15.857 -8.895,-14.734C-8.812,-13.965 -8.338,-13.708 -7.559,-13.705C-6.319,-13.701 -5.079,-13.708 -3.839,-13.703C-1.5,-13.693 0.087,-12.261 0.18,-9.919C0.264,-7.83 0.257,-5.733 0.182,-3.644C0.106,-1.539 -1.263,-0.104 -3.364,-0.042C-6.435,0.05 -9.509,-0.019 -12.62,-0.019L-12.62,-3.89L-12.067,-3.89C-9.781,-3.89 -7.495,-3.889 -5.208,-3.89C-4.165,-3.891 -3.663,-4.287 -3.596,-5.327C-3.53,-6.352 -3.528,-7.389 -3.599,-8.413C-3.67,-9.432 -4.171,-9.824 -5.185,-9.827C-6.393,-9.83 -7.6,-9.822 -8.807,-9.829C-11.179,-9.844 -12.737,-11.285 -12.824,-13.661C-12.894,-15.574 -12.89,-17.493 -12.828,-19.407C-12.754,-21.655 -11.311,-23.063 -9.072,-23.093C-6.126,-23.131 -3.18,-23.104 -0.233,-23.105C-0.171,-23.105 -0.108,-23.093 0,-23.081" style="fill:white;fill-rule:nonzero;"/>
        </g>
        <g transform="matrix(1,0,0,1,222.486,469.123)">
            <path d="M0,15.28L0,19.134C-0.131,19.145 -0.239,19.163 -0.347,19.163C-3.116,19.164 -5.886,19.178 -8.655,19.158C-10.234,19.146 -11.546,18.577 -12.183,17.034C-12.447,16.394 -12.614,15.665 -12.617,14.975C-12.65,8.728 -12.638,2.482 -12.638,-3.765C-12.638,-3.795 -12.626,-3.826 -12.611,-3.898L-8.813,-3.898L-8.813,-3.292C-8.813,2.005 -8.816,7.301 -8.81,12.598C-8.81,13.08 -8.804,13.569 -8.723,14.042C-8.57,14.939 -8.138,15.277 -7.229,15.279C-5.023,15.282 -2.817,15.28 -0.611,15.28L0,15.28Z" style="fill:white;fill-rule:nonzero;"/>
        </g>
        <g transform="matrix(1,0,0,1,0,358.197)">
            <rect x="148.257" y="107.027" width="3.743" height="23.025" style="fill:white;"/>
        </g>
        <g transform="matrix(-1,0,0,1,393.951,358.205)">
            <rect x="195.104" y="107.01" width="3.743" height="23.051" style="fill:white;"/>
        </g>
        <g transform="matrix(1,0,0,1,163.904,472.685)">
            <path d="M0,7.081C-0.66,4.188 -1.312,1.333 -1.963,-1.523C-2.001,-1.52 -2.038,-1.517 -2.076,-1.513C-2.726,1.342 -3.377,4.196 -4.034,7.081L0,7.081ZM-6.241,15.581L-10.211,15.581C-9.951,14.572 -9.7,13.596 -9.447,12.619C-8.282,8.125 -7.117,3.631 -5.949,-0.863C-5.529,-2.48 -5.133,-4.105 -4.666,-5.707C-4.09,-7.683 -2.033,-8.5 -0.434,-7.431C0.246,-6.977 0.615,-6.301 0.81,-5.537C2.005,-0.868 3.187,3.805 4.375,8.476C4.921,10.624 5.475,12.77 6.022,14.919C6.073,15.119 6.107,15.324 6.158,15.567L2.2,15.567C1.829,14.06 1.455,12.539 1.069,10.969L-0.334,10.969C-1.783,10.969 -3.232,10.977 -4.681,10.962C-4.985,10.959 -5.127,11.028 -5.203,11.352C-5.529,12.761 -5.889,14.161 -6.241,15.581" style="fill:white;fill-rule:nonzero;"/>
        </g>
        <g transform="matrix(1,0,0,1,233.362,472.855)">
            <path d="M0,6.917C-0.664,4.008 -1.315,1.151 -1.967,-1.705C-2.002,-1.704 -2.037,-1.704 -2.072,-1.703C-2.724,1.159 -3.377,4.021 -4.037,6.917L0,6.917ZM6.175,15.414L2.203,15.414C1.967,14.457 1.73,13.496 1.493,12.534C1.435,12.301 1.374,12.067 1.314,11.834C1.05,10.799 1.05,10.799 0.011,10.799C-1.534,10.799 -3.08,10.814 -4.625,10.788C-5.01,10.781 -5.15,10.911 -5.232,11.264C-5.552,12.641 -5.896,14.012 -6.235,15.405L-10.206,15.405C-10.026,14.687 -9.857,13.989 -9.677,13.295C-8.44,8.537 -7.202,3.779 -5.962,-0.978C-5.537,-2.61 -5.137,-4.249 -4.669,-5.869C-4.148,-7.675 -2.514,-8.497 -0.868,-7.828C0.064,-7.45 0.551,-6.678 0.792,-5.761C1.475,-3.166 2.12,-0.562 2.781,2.039C3.695,5.635 4.611,9.231 5.525,12.828C5.739,13.667 5.948,14.508 6.175,15.414" style="fill:white;fill-rule:nonzero;"/>
        </g>
    </g>
</svg>
