<?xml version="1.0" encoding="UTF-8" standalone="no"?>
<!DOCTYPE svg PUBLIC "-//W3C//DTD SVG 1.1//EN" "http://www.w3.org/Graphics/SVG/1.1/DTD/svg11.dtd">
<svg width="100%" height="100%" viewBox="0 0 2309 552" version="1.1" xmlns="http://www.w3.org/2000/svg" xmlns:xlink="http://www.w3.org/1999/xlink" xml:space="preserve" xmlns:serif="http://www.serif.com/" style="fill-rule:evenodd;clip-rule:evenodd;stroke-linejoin:round;stroke-miterlimit:2;">
    <g transform="matrix(1,0,0,1,-144.875,-414.663)">
        <g transform="matrix(4.16667,0,0,4.16667,698.129,823.786)">
            <path d="M0,-64.2L-33.097,-9.774L-44.694,-28.636L-11.454,-83.055L0,-64.2ZM-6.311,33.745L59.39,33.745L4.255,-57.266L-9.435,-34.516L19.095,12.72L6.422,12.72L-6.311,33.745ZM-98.427,33.745L-85.693,12.72L-0.82,12.72L-13.553,33.745L-98.427,33.745ZM-132.781,33.745L-105.971,33.745L-26.08,-97.945L-53.275,-97.945L-132.781,33.745Z" style="fill:rgb(220,133,61);"/>
        </g>
        <g transform="matrix(4.16667,0,0,4.16667,1021.95,416.105)">
            <path d="M0,40.685L-10.069,40.685L-25.397,23.704C-25.91,23.166 -26.167,22.407 -26.167,21.447C-26.167,20.256 -25.729,19.18 -24.852,18.21C-23.976,17.25 -22.64,16.769 -20.844,16.769L-11.929,16.769C-11.031,16.769 -10.315,16.539 -9.78,16.078C-9.246,15.627 -8.979,15.05 -8.979,14.359L-8.979,10.123C-8.979,9.249 -9.182,8.558 -9.588,8.068C-9.995,7.568 -10.71,7.319 -11.736,7.319L-26.936,7.319L-26.936,40.685L-34.633,40.685L-34.633,0L-10.775,0C-7.782,0 -5.387,0.961 -3.591,2.881C-2.01,4.61 -1.218,6.627 -1.218,8.932L-1.218,15.675C-1.218,17.864 -2.148,19.814 -4.008,21.524C-5.869,23.234 -7.846,24.088 -9.941,24.088L-15.072,24.088L0,40.685Z" style="fill:white;fill-rule:nonzero;"/>
        </g>
        <g transform="matrix(-4.16667,0,0,4.16667,2445.24,-1574.19)">
            <rect x="329.341" y="477.671" width="7.761" height="40.685" style="fill:white;"/>
        </g>
        <g transform="matrix(4.16667,0,0,4.16667,1222.36,416.105)">
            <path d="M0,40.685L-16.74,40.685C-20.544,40.685 -23.484,39.773 -25.558,37.948C-27.631,36.123 -28.668,33.501 -28.668,30.081L-28.668,0L-20.78,0L-20.78,30.024C-20.78,31.253 -20.48,32.118 -19.882,32.617C-19.284,33.117 -18.257,33.367 -16.803,33.367L0,33.367L0,40.685Z" style="fill:white;fill-rule:nonzero;"/>
        </g>
        <g transform="matrix(-4.16667,0,0,4.16667,2839.13,-1574.19)">
            <rect x="376.608" y="477.671" width="7.76" height="40.685" style="fill:white;"/>
        </g>
        <g transform="matrix(4.16667,0,0,4.16667,1434,465.089)">
            <path d="M0,17.173C0,21.284 -1.079,24.271 -3.239,26.134C-5.398,27.997 -8.915,28.929 -13.788,28.929L-18.406,28.929C-23.28,28.929 -26.797,27.997 -28.957,26.134C-31.115,24.271 -32.195,21.284 -32.195,17.173L-32.195,0C-32.195,-4.111 -31.115,-7.098 -28.957,-8.961C-26.797,-10.825 -23.28,-11.756 -18.406,-11.756L-13.788,-11.756C-8.915,-11.756 -5.398,-10.825 -3.239,-8.961C-1.079,-7.098 0,-4.111 0,0L0,17.173ZM-8.016,17.519L-8.016,-0.23C-8.016,-1.844 -8.369,-2.949 -9.075,-3.544C-9.78,-4.139 -11.009,-4.437 -12.763,-4.437L-19.369,-4.437C-21.122,-4.437 -22.372,-4.139 -23.12,-3.544C-23.868,-2.949 -24.243,-1.844 -24.243,-0.23L-24.243,17.403C-24.243,19.017 -23.868,20.122 -23.12,20.717C-22.372,21.312 -21.122,21.61 -19.369,21.61L-12.763,21.61C-10.753,21.61 -9.459,21.351 -8.882,20.832C-8.305,20.314 -8.016,19.209 -8.016,17.519" style="fill:white;fill-rule:nonzero;"/>
        </g>
        <g transform="matrix(4.16667,0,0,4.16667,1597.81,440.357)">
            <path d="M0,29.39C0,31.311 -0.566,32.819 -1.7,33.914C-2.833,35.009 -4.212,35.556 -5.837,35.556C-7.248,35.556 -8.563,35.172 -9.781,34.404C-10.999,33.636 -11.951,32.483 -12.635,30.946L-23.602,6.8L-23.602,34.865L-31.49,34.865L-31.49,0.576C-31.49,-1.575 -30.913,-3.237 -29.758,-4.409C-28.604,-5.58 -27.215,-6.166 -25.59,-6.166C-24.265,-6.166 -22.981,-5.773 -21.742,-4.985C-20.502,-4.197 -19.562,-3.092 -18.92,-1.672L-7.953,22.936L-7.953,-5.705L0,-5.705L0,29.39Z" style="fill:white;fill-rule:nonzero;"/>
        </g>
        <g transform="matrix(4.16667,0,0,4.16667,1764.03,462.203)">
            <path d="M0,18.557C0,22.207 -0.994,24.963 -2.982,26.827C-4.971,28.69 -7.825,29.621 -11.545,29.621L-20.01,29.621C-23.943,29.621 -26.937,28.661 -28.988,26.74C-31.04,24.819 -32.066,22.149 -32.066,18.73L-32.066,0.058C-32.066,-7.356 -28.005,-11.064 -19.882,-11.064L-2.758,-11.064L-2.758,-3.745L-20.395,-3.745C-21.892,-3.745 -22.886,-3.505 -23.377,-3.025C-23.869,-2.544 -24.114,-1.651 -24.114,-0.345L-24.114,19.076C-24.114,21.227 -22.768,22.303 -20.073,22.303L-11.545,22.303C-9.149,22.303 -7.953,21.265 -7.953,19.191L-7.953,5.764L0,5.764L0,18.557Z" style="fill:rgb(220,133,61);fill-rule:nonzero;"/>
        </g>
        <g transform="matrix(4.16667,0,0,4.16667,1938.26,416.105)">
            <path d="M0,40.685L-10.069,40.685L-25.396,23.704C-25.91,23.166 -26.166,22.407 -26.166,21.447C-26.166,20.256 -25.729,19.18 -24.853,18.21C-23.976,17.25 -22.64,16.769 -20.844,16.769L-11.929,16.769C-11.031,16.769 -10.315,16.539 -9.78,16.078C-9.246,15.627 -8.979,15.05 -8.979,14.359L-8.979,10.123C-8.979,9.249 -9.182,8.558 -9.589,8.068C-9.994,7.568 -10.71,7.319 -11.736,7.319L-26.937,7.319L-26.937,40.685L-34.633,40.685L-34.633,0L-10.775,0C-7.782,0 -5.387,0.961 -3.591,2.881C-2.01,4.61 -1.219,6.627 -1.219,8.932L-1.219,15.675C-1.219,17.864 -2.148,19.814 -4.009,21.524C-5.868,23.234 -7.846,24.088 -9.94,24.088L-15.071,24.088L0,40.685Z" style="fill:rgb(220,133,61);fill-rule:nonzero;"/>
        </g>
        <g transform="matrix(4.16667,0,0,4.16667,2108.21,414.663)">
            <path d="M0,41.031L-8.338,41.031L-11.545,32.963L-28.604,32.963L-31.811,41.031L-40.147,41.031L-25.782,4.668C-24.542,1.556 -22.618,0 -20.01,0C-17.444,0 -15.542,1.556 -14.303,4.668L0,41.031ZM-14.431,25.644L-20.139,11.238L-25.718,25.644L-14.431,25.644Z" style="fill:rgb(220,133,61);fill-rule:nonzero;"/>
        </g>
        <g transform="matrix(4.16667,0,0,4.16667,2243.69,555.129)">
            <path d="M0,-26.047L-17.765,-26.047C-20.117,-26.047 -21.292,-24.952 -21.292,-22.762L-21.292,-3.284C-21.292,-2.362 -20.961,-1.584 -20.299,-0.95C-19.635,-0.316 -18.791,0.001 -17.765,0.001L-0.128,0.001L-0.128,7.319L-19.048,7.319C-21.741,7.319 -24.071,6.397 -26.038,4.554C-28.134,2.594 -29.181,0.116 -29.181,-2.88L-29.181,-22.935C-29.181,-26.086 -28.187,-28.611 -26.199,-30.513C-24.21,-32.415 -21.677,-33.366 -18.599,-33.366L0,-33.366L0,-26.047Z" style="fill:rgb(220,133,61);fill-rule:nonzero;"/>
        </g>
        <g transform="matrix(-4.16667,0,0,4.16667,4900.49,-1574.19)">
            <rect x="623.97" y="477.671" width="7.762" height="40.685" style="fill:rgb(220,133,61);"/>
        </g>
        <g transform="matrix(4.16667,0,0,4.16667,2453.19,555.129)">
            <path d="M0,-26.047L-18.662,-26.047C-19.432,-26.047 -20.105,-25.749 -20.683,-25.154C-21.26,-24.558 -21.549,-23.703 -21.549,-22.589L-21.549,-16.827L-0.063,-16.827L-0.063,-9.508L-21.549,-9.508L-21.549,-2.708C-21.549,-1.594 -21.078,-0.864 -20.137,-0.518C-19.197,-0.172 -17.721,0.001 -15.712,0.001L-0.191,0.001L-0.191,7.319L-17.38,7.319C-21.271,7.319 -24.253,6.349 -26.326,4.409C-28.4,2.469 -29.437,-0.326 -29.437,-3.976L-29.437,-22.762C-29.437,-26.335 -28.368,-28.996 -26.23,-30.744C-24.093,-32.492 -20.757,-33.366 -16.225,-33.366L0,-33.366L0,-26.047Z" style="fill:rgb(220,133,61);fill-rule:nonzero;"/>
        </g>
        <g transform="matrix(4.16667,0,0,4.16667,2129.76,925.133)">
            <path d="M0,-3.738L0,9.378L-3.949,9.378C-3.96,9.153 -3.978,8.956 -3.979,8.76C-3.979,2.346 -3.984,-4.068 -3.969,-10.482C-3.968,-10.954 -3.911,-11.455 -3.732,-11.893C-3.143,-13.335 -1.339,-13.647 -0.236,-12.476C0.227,-11.985 0.537,-11.361 0.841,-10.765C2.898,-6.729 4.936,-2.683 7.09,1.35L7.09,-12.783L11.165,-12.783L11.165,-12.168C11.165,-5.874 11.168,0.419 11.16,6.713C11.159,7.172 11.123,7.638 11.03,8.089C10.882,8.812 10.522,9.447 9.685,9.667C8.771,9.909 7.809,9.899 7.184,9.166C6.515,8.383 5.921,7.522 5.453,6.626C3.702,3.276 2.018,-0.103 0.307,-3.471C0.255,-3.573 0.193,-3.671 0.137,-3.771C0.091,-3.76 0.046,-3.749 0,-3.738" style="fill:rgb(220,133,61);fill-rule:nonzero;"/>
        </g>
        <g transform="matrix(4.16667,0,0,4.16667,1853.66,887.485)">
            <path d="M0,14.634C0.075,14.665 0.113,14.694 0.151,14.695C1.545,14.702 2.938,14.711 4.33,14.712C6.85,14.715 7.133,14.452 7.134,12.116C7.136,8.922 7.139,5.728 7.129,2.534C7.128,2.074 7.083,1.611 7.013,1.155C6.886,0.34 6.391,-0.046 5.492,-0.049C3.812,-0.055 2.131,-0.053 0.45,-0.049C0.303,-0.049 0.156,-0.019 0,-0.003L0,14.634ZM-4.101,18.414L-4.101,-3.795L-3.376,-3.795C-0.035,-3.795 3.307,-3.766 6.647,-3.804C9.538,-3.836 11.071,-2.164 11.114,0.139C11.205,5.002 11.177,9.867 11.126,14.731C11.102,17.016 9.457,18.433 6.958,18.449C3.462,18.47 -0.034,18.455 -3.53,18.454C-3.703,18.454 -3.875,18.43 -4.101,18.414" style="fill:rgb(220,133,61);fill-rule:nonzero;"/>
        </g>
        <g transform="matrix(4.16667,0,0,4.16667,1968.52,872.098)">
            <path d="M0,22.148L-1.17,22.148C-3.717,22.148 -6.265,22.089 -8.809,22.163C-12.081,22.258 -13.354,20.312 -13.357,18.034C-13.361,13.428 -13.368,8.822 -13.347,4.216C-13.344,3.643 -13.237,3.053 -13.065,2.5C-12.567,0.893 -11.124,-0.09 -9.288,-0.098C-6.365,-0.11 -3.442,-0.102 -0.52,-0.101C-0.37,-0.101 -0.221,-0.079 -0.037,-0.064L-0.037,3.641L-0.769,3.641C-3.026,3.641 -5.285,3.64 -7.544,3.642C-8.641,3.643 -9.154,3.992 -9.24,5.005C-9.349,6.265 -9.32,7.534 -9.356,8.799C-9.369,9.227 -9.027,9.15 -8.755,9.15C-6.607,9.154 -4.459,9.153 -2.312,9.153L-0.256,9.153C-0.256,10.343 -0.25,11.464 -0.26,12.585C-0.264,13.015 -0.646,12.892 -0.901,12.893C-3.447,12.9 -5.994,12.898 -8.54,12.898L-9.431,12.898C-9.348,14.431 -9.341,15.913 -9.159,17.377C-9.057,18.206 -8.646,18.397 -7.65,18.401C-5.326,18.412 -3.001,18.417 -0.676,18.397C-0.174,18.392 0.033,18.494 0.013,18.995C-0.029,20.015 0,21.038 0,22.148" style="fill:rgb(220,133,61);fill-rule:nonzero;"/>
        </g>
        <g transform="matrix(4.16667,0,0,4.16667,2245.58,963.953)">
            <path d="M0,-22.091L0,-18.404L-0.721,-18.404C-3.091,-18.404 -5.46,-18.405 -7.829,-18.403C-8.906,-18.402 -9.373,-18.175 -9.486,-17.225C-9.611,-16.182 -9.559,-15.105 -9.422,-14.06C-9.324,-13.317 -8.856,-13.094 -8.006,-13.079C-6.393,-13.05 -4.772,-13.089 -3.166,-12.975C-1.53,-12.86 -0.543,-11.899 -0.047,-10.542C0.151,-9.999 0.235,-9.402 0.247,-8.827C0.283,-7.118 0.304,-5.407 0.243,-3.699C0.193,-2.292 -0.322,-1.046 -1.793,-0.336C-2.212,-0.133 -2.706,0.048 -3.168,0.052C-6.555,0.085 -9.941,0.07 -13.378,0.07L-13.378,-3.64L-12.518,-3.64C-10.259,-3.64 -8,-3.639 -5.741,-3.64C-4.331,-3.641 -3.92,-3.884 -3.784,-5.144C-3.68,-6.113 -3.733,-7.113 -3.867,-8.082C-4.006,-9.078 -4.469,-9.35 -5.589,-9.352C-6.896,-9.355 -8.201,-9.35 -9.508,-9.354C-11.702,-9.361 -13.397,-10.624 -13.532,-12.616C-13.676,-14.738 -13.665,-16.879 -13.535,-19.002C-13.426,-20.789 -11.824,-22.101 -9.874,-22.129C-6.664,-22.176 -3.453,-22.144 -0.242,-22.143C-0.181,-22.143 -0.118,-22.117 0,-22.091" style="fill:rgb(220,133,61);fill-rule:nonzero;"/>
        </g>
        <g transform="matrix(4.16667,0,0,4.16667,1537.06,871.529)">
            <path d="M0,22.249L0,18.542L0.744,18.542C3.09,18.542 5.436,18.544 7.781,18.541C9.06,18.539 9.512,18.261 9.608,17.121C9.697,16.068 9.638,14.995 9.52,13.941C9.435,13.175 8.906,12.841 8.054,12.833C6.682,12.82 5.31,12.832 3.938,12.828C1.659,12.822 -0.041,11.473 -0.143,9.416C-0.243,7.392 -0.234,5.356 -0.146,3.331C-0.064,1.497 1.509,0.091 3.507,0.056C6.736,-0.001 9.969,0.039 13.199,0.041C13.262,0.041 13.325,0.066 13.421,0.087L13.421,3.778L9.599,3.778C8.271,3.778 6.942,3.777 5.615,3.778C4.513,3.78 4.041,4.023 3.914,4.989C3.786,5.973 3.802,6.996 3.944,7.979C4.075,8.879 4.512,9.09 5.51,9.104C7.078,9.127 8.653,9.088 10.215,9.202C11.903,9.325 12.908,10.305 13.393,11.725C13.555,12.197 13.646,12.707 13.653,13.201C13.681,15.01 13.695,16.82 13.646,18.628C13.597,20.463 12.497,21.733 10.679,22.182C10.552,22.213 10.42,22.246 10.29,22.247C6.883,22.25 3.477,22.249 0,22.249" style="fill:rgb(220,133,61);fill-rule:nonzero;"/>
        </g>
        <g transform="matrix(4.16667,0,0,4.16667,1660.18,926.08)">
            <path d="M0,-3.815C0,-2.615 -0.011,-1.533 0.006,-0.451C0.013,0.004 -0.32,-0.059 -0.625,-0.059C-3.17,-0.058 -5.716,-0.058 -8.261,-0.058L-8.977,-0.058C-8.977,1.445 -9.048,2.868 -8.95,4.282C-8.89,5.147 -8.399,5.44 -7.425,5.445C-5.101,5.457 -2.776,5.464 -0.453,5.439C0.101,5.433 0.275,5.581 0.256,6.082C0.218,7.084 0.244,8.088 0.244,9.159C-0.014,9.171 -0.226,9.191 -0.437,9.191C-3.204,9.193 -5.972,9.153 -8.737,9.203C-11.672,9.255 -13.07,7.502 -13.087,5.275C-13.121,0.531 -13.123,-4.213 -13.083,-8.958C-13.07,-10.543 -12.479,-11.932 -10.78,-12.679C-10.315,-12.883 -9.77,-13.031 -9.259,-13.037C-6.183,-13.07 -3.106,-13.054 -0.03,-13.052C0.032,-13.052 0.095,-13.026 0.199,-13.003L0.199,-9.315L-0.505,-9.315C-2.784,-9.315 -5.064,-9.316 -7.344,-9.313C-8.318,-9.312 -8.888,-8.991 -8.947,-8.139C-9.047,-6.727 -8.975,-5.305 -8.975,-3.815L0,-3.815Z" style="fill:rgb(220,133,61);fill-rule:nonzero;"/>
        </g>
        <g transform="matrix(4.16667,0,0,4.16667,2100.91,964.213)">
            <path d="M0,-22.165L0,-18.466L-3.205,-18.466C-4.666,-18.466 -6.127,-18.47 -7.588,-18.465C-8.529,-18.461 -9.07,-18.133 -9.12,-17.299C-9.203,-15.883 -9.143,-14.459 -9.143,-12.963L-0.248,-12.963L-0.248,-9.225L-9.332,-9.225C-9.261,-7.673 -9.239,-6.193 -9.104,-4.722C-9.037,-3.997 -8.516,-3.709 -7.573,-3.706C-5.293,-3.696 -3.013,-3.702 -0.732,-3.702L0.004,-3.702L0.004,0.002C-0.149,0.016 -0.275,0.038 -0.402,0.038C-3.324,0.04 -6.247,0.057 -9.169,0.033C-11.627,0.013 -13.209,-1.37 -13.251,-3.616C-13.311,-6.832 -13.281,-10.05 -13.283,-13.267C-13.284,-14.977 -13.333,-16.688 -13.244,-18.394C-13.165,-19.891 -12.547,-21.185 -10.924,-21.849C-10.452,-22.041 -9.911,-22.185 -9.399,-22.19C-6.345,-22.222 -3.289,-22.207 -0.234,-22.206C-0.171,-22.206 -0.108,-22.185 0,-22.165" style="fill:rgb(220,133,61);fill-rule:nonzero;"/>
        </g>
        <g transform="matrix(4.16667,0,0,4.16667,2313.64,964.442)">
            <path d="M0,-22.265L0,-18.521L-0.721,-18.521C-2.979,-18.521 -5.237,-18.523 -7.495,-18.52C-8.569,-18.519 -9.083,-18.215 -9.147,-17.269C-9.241,-15.893 -9.172,-14.507 -9.172,-13.051L-0.284,-13.051L-0.284,-9.276L-9.375,-9.276C-9.293,-7.727 -9.267,-6.247 -9.115,-4.778C-9.038,-4.034 -8.538,-3.765 -7.589,-3.761C-5.331,-3.751 -3.072,-3.757 -0.814,-3.757L-0.036,-3.757L-0.036,-0.05C-0.198,-0.037 -0.348,-0.016 -0.496,-0.016C-3.396,-0.015 -6.296,0.003 -9.196,-0.023C-11.617,-0.044 -13.244,-1.424 -13.27,-3.621C-13.325,-8.567 -13.326,-13.514 -13.271,-18.46C-13.244,-20.793 -11.485,-22.261 -8.936,-22.264C-6.19,-22.268 -3.445,-22.265 -0.7,-22.265L0,-22.265Z" style="fill:rgb(220,133,61);fill-rule:nonzero;"/>
        </g>
        <g transform="matrix(4.16667,0,0,4.16667,2033.85,925.43)">
            <path d="M0,-3.65L0,0.087L-9.019,0.087L-9.019,9.293L-13.052,9.293C-13.063,9.075 -13.08,8.878 -13.081,8.683C-13.082,3.034 -13.085,-2.614 -13.078,-8.263C-13.077,-9.211 -12.968,-10.142 -12.472,-11.008C-11.811,-12.162 -10.733,-12.838 -9.354,-12.87C-6.171,-12.943 -2.984,-12.893 0.252,-12.893L0.252,-9.158L-0.471,-9.158C-2.75,-9.158 -5.029,-9.16 -7.309,-9.157C-8.298,-9.156 -8.881,-8.814 -8.943,-7.932C-9.042,-6.535 -8.97,-5.129 -8.97,-3.65L0,-3.65Z" style="fill:rgb(220,133,61);fill-rule:nonzero;"/>
        </g>
        <g transform="matrix(4.16667,0,0,4.16667,1789.3,925.6)">
            <path d="M0,-3.709L0,0.033L-9.022,0.033L-9.022,9.271L-13.069,9.271C-13.08,9.065 -13.099,8.874 -13.099,8.681C-13.101,3.031 -13.107,-2.619 -13.093,-8.269C-13.091,-9.254 -12.982,-10.233 -12.439,-11.128C-11.763,-12.244 -10.688,-12.886 -9.335,-12.914C-6.193,-12.98 -3.049,-12.934 0.094,-12.931C0.133,-12.931 0.172,-12.904 0.246,-12.876L0.246,-9.199L-0.449,-9.199C-2.707,-9.199 -4.965,-9.2 -7.223,-9.199C-8.388,-9.198 -8.939,-8.8 -8.989,-7.76C-9.052,-6.437 -9.004,-5.11 -9.004,-3.709L0,-3.709Z" style="fill:rgb(220,133,61);fill-rule:nonzero;"/>
        </g>
        <g transform="matrix(4.16667,0,0,4.16667,1672.75,964.603)">
            <path d="M0,-22.271L3.989,-22.271L3.989,-21.481C3.989,-16.514 3.986,-11.546 3.993,-6.579C3.994,-6.077 4.021,-5.572 4.089,-5.074C4.216,-4.156 4.645,-3.806 5.663,-3.8C7.966,-3.789 10.27,-3.796 12.572,-3.796L13.333,-3.796L13.333,-0.091C13.129,-0.079 12.918,-0.055 12.708,-0.055C9.918,-0.052 7.127,-0.086 4.338,-0.044C1.457,0 0.014,-1.626 -0.013,-3.913C-0.083,-9.946 -0.039,-15.98 -0.038,-22.014C-0.038,-22.09 -0.017,-22.166 0,-22.271" style="fill:rgb(220,133,61);fill-rule:nonzero;"/>
        </g>
        <g transform="matrix(4.16667,0,0,4.16667,-331.605,-716.815)">
            <rect x="510.592" y="393.319" width="7.686" height="3.619" style="fill:rgb(220,133,61);"/>
        </g>
        <g transform="matrix(4.16667,0,0,4.16667,1097.45,965.945)">
            <path d="M0,-22.97L4.12,-22.97L4.12,-22.538C4.12,-17.058 4.117,-11.578 4.126,-6.099C4.127,-5.686 4.174,-5.263 4.283,-4.864C4.45,-4.243 4.955,-3.91 5.667,-3.905C6.975,-3.893 8.283,-3.896 9.592,-3.9C10.742,-3.903 11.328,-4.412 11.394,-5.462C11.41,-5.726 11.407,-5.991 11.407,-6.254C11.408,-11.679 11.408,-17.104 11.408,-22.528L11.408,-22.967L15.514,-22.967C15.52,-22.853 15.531,-22.737 15.531,-22.621C15.532,-16.713 15.535,-10.804 15.528,-4.895C15.527,-3.869 15.402,-2.858 14.924,-1.907C14.301,-0.669 13.22,-0.041 11.745,-0.027C9.128,-0.003 6.511,0 3.895,-0.028C2.149,-0.047 0.828,-0.991 0.353,-2.568C0.145,-3.259 0.001,-3.991 -0.002,-4.705C-0.03,-10.69 -0.019,-16.676 -0.018,-22.662C-0.018,-22.758 -0.007,-22.854 0,-22.97" style="fill:rgb(220,133,61);fill-rule:nonzero;"/>
        </g>
        <g transform="matrix(4.16667,0,0,4.16667,1453.05,965.935)">
            <path d="M0,-22.969L4.124,-22.969L4.124,-22.605C4.124,-16.707 4.128,-10.809 4.12,-4.911C4.119,-3.773 3.98,-2.654 3.361,-1.629C2.702,-0.538 1.651,-0.034 0.322,-0.024C-2.282,-0.003 -4.887,0 -7.491,-0.024C-9.239,-0.04 -10.559,-0.971 -11.051,-2.547C-11.253,-3.195 -11.404,-3.881 -11.407,-4.551C-11.435,-10.603 -11.425,-16.655 -11.425,-22.706C-11.425,-22.782 -11.417,-22.858 -11.411,-22.958L-7.288,-22.958L-7.288,-22.554C-7.288,-17.063 -7.291,-11.573 -7.281,-6.082C-7.28,-5.67 -7.23,-5.247 -7.122,-4.847C-6.962,-4.257 -6.462,-3.911 -5.798,-3.905C-4.368,-3.891 -2.938,-3.886 -1.51,-3.907C-0.637,-3.919 -0.082,-4.51 -0.015,-5.441C0.004,-5.704 0,-5.969 0,-6.233C0.001,-11.669 0,-17.104 0,-22.54L0,-22.969Z" style="fill:rgb(220,133,61);fill-rule:nonzero;"/>
        </g>
        <g transform="matrix(4.16667,0,0,4.16667,1392.06,965.732)">
            <path d="M0,-22.914L0,-19.068L-0.44,-19.068C-2.984,-19.068 -5.528,-19.047 -8.071,-19.077C-9.255,-19.091 -9.736,-18.668 -9.85,-17.563C-9.935,-16.747 -9.885,-15.916 -9.857,-15.093C-9.848,-14.826 -9.754,-14.549 -9.638,-14.301C-9.401,-13.792 -8.948,-13.564 -8.341,-13.566C-6.876,-13.569 -5.41,-13.576 -3.944,-13.562C-1.732,-13.543 -0.296,-12.249 0.078,-10.376C0.189,-9.818 0.221,-9.242 0.228,-8.673C0.246,-7.122 0.244,-5.57 0.224,-4.019C0.214,-3.289 0.048,-2.58 -0.312,-1.92C-0.935,-0.782 -1.977,-0.184 -3.34,-0.026C-3.735,0.02 -4.137,0.03 -4.536,0.03C-7.467,0.035 -10.398,0.033 -13.33,0.033L-13.788,0.033L-13.788,-3.847L-13.363,-3.847C-10.82,-3.847 -8.275,-3.871 -5.732,-3.836C-4.57,-3.821 -4.068,-4.175 -3.972,-5.161C-3.865,-6.269 -3.883,-7.403 -4.006,-8.511C-4.108,-9.428 -4.635,-9.726 -5.655,-9.726C-6.963,-9.727 -8.272,-9.752 -9.58,-9.722C-12.424,-9.655 -13.89,-11.423 -13.995,-13.588C-14.086,-15.466 -14.076,-17.352 -13.994,-19.23C-13.93,-20.69 -13.286,-21.935 -11.707,-22.562C-11.188,-22.768 -10.592,-22.91 -10.029,-22.915C-6.734,-22.949 -3.439,-22.933 -0.145,-22.933C-0.11,-22.933 -0.074,-22.924 0,-22.914" style="fill:rgb(220,133,61);fill-rule:nonzero;"/>
        </g>
        <g transform="matrix(4.16667,0,0,4.16667,1290.49,949.793)">
            <path d="M0,-15.254L-4.977,-15.254L-4.977,-19.089L9.031,-19.089L9.031,-15.242L8.61,-15.242C7.253,-15.242 5.896,-15.233 4.541,-15.249C4.207,-15.253 4.117,-15.168 4.117,-14.863C4.127,-8.779 4.125,-2.695 4.125,3.388L4.125,3.835L0,3.835L0,-15.254Z" style="fill:rgb(220,133,61);fill-rule:nonzero;"/>
        </g>
        <g transform="matrix(4.16667,0,0,4.16667,1017.2,870.268)">
            <path d="M0,22.976L0,19.064C0.759,19.064 1.506,19.065 2.253,19.064C3.251,19.063 3.75,18.685 3.891,17.786C3.952,17.396 3.98,16.999 3.981,16.605C3.986,11.215 3.984,5.825 3.984,0.434L3.984,-0.004L8.084,-0.004C8.09,0.112 8.102,0.229 8.102,0.345C8.103,6.351 8.106,12.358 8.099,18.364C8.097,19.234 8.009,20.1 7.593,20.906C7.006,22.042 6.002,22.741 4.655,22.853C3.119,22.98 1.566,22.942 0,22.976" style="fill:rgb(220,133,61);fill-rule:nonzero;"/>
        </g>
        <g transform="matrix(4.16667,0,0,4.16667,1196.53,870.541)">
            <path d="M0,22.825L0,18.999C0.778,18.999 1.538,19 2.298,18.998C3.213,18.996 3.653,18.689 3.837,17.864C3.927,17.458 3.973,17.037 3.973,16.623C3.982,11.211 3.979,5.799 3.979,0.387L3.979,-0.064L8.059,-0.064C8.067,0.045 8.083,0.16 8.083,0.275C8.084,6.293 8.085,12.31 8.083,18.327C8.082,19.234 7.981,20.126 7.519,20.953C6.883,22.089 5.833,22.729 4.469,22.806C3,22.889 1.52,22.825 0,22.825" style="fill:rgb(220,133,61);fill-rule:nonzero;"/>
        </g>
        <g transform="matrix(-4.16667,0,0,4.16667,2479.91,-739.84)">
            <rect x="335.347" y="386.43" width="4.07" height="22.923" style="fill:rgb(220,133,61);"/>
        </g>
        <g transform="matrix(-4.16667,0,0,4.16667,2838.42,-739.89)">
            <rect x="378.373" y="386.433" width="4.061" height="22.929" style="fill:rgb(220,133,61);"/>
        </g>
        <g transform="matrix(-4.16667,0,0,4.16667,2705.11,-716.165)">
            <rect x="360.433" y="393.153" width="7.945" height="3.795" style="fill:rgb(220,133,61);"/>
        </g>
        <g transform="matrix(0,4.16667,4.16667,0,1503.99,905.032)">
            <path d="M4.243,-4.243C2.115,-4.243 0.389,-2.344 0.389,0C0.389,2.344 2.115,4.243 4.243,4.243C6.372,4.243 8.097,2.344 8.097,0C8.097,-2.344 6.372,-4.243 4.243,-4.243" style="fill:rgb(220,133,61);fill-rule:nonzero;"/>
        </g>
        <g transform="matrix(4.16667,0,0,4.16667,1056.79,628.84)">
            <path d="M0,40.716L-7.229,40.716C-7.249,40.405 -7.283,40.112 -7.284,39.817C-7.286,28.172 -7.246,16.526 -7.311,4.881C-7.33,1.462 -5.123,0.164 -2.895,-0.194C0.179,-0.688 2.941,0.709 3.832,3.376C5.285,7.726 6.618,12.111 7.989,16.484C9.183,20.29 10.359,24.102 11.547,27.91C11.62,28.145 11.729,28.371 11.911,28.821C12.299,27.622 12.634,26.619 12.95,25.611C15.132,18.645 17.32,11.681 19.481,4.71C20.031,2.937 20.719,1.266 22.675,0.377C24.84,-0.606 26.991,-0.511 29.033,0.659C30.217,1.339 30.9,2.366 31.07,3.641C31.136,4.141 31.16,4.65 31.161,5.155C31.166,16.632 31.165,28.108 31.165,39.585L31.165,40.699L23.843,40.699L23.843,14.056C23.78,14.048 23.716,14.039 23.653,14.03C22.958,16.228 22.262,18.425 21.566,20.623C19.713,26.477 17.864,32.332 16.001,38.184C15.864,38.612 15.655,39.026 15.444,39.431C14.732,40.803 13.5,41.404 11.862,41.397C10.253,41.389 8.972,40.802 8.41,39.415C7.632,37.496 6.975,35.534 6.349,33.569C4.325,27.204 2.339,20.83 0.335,14.46C0.296,14.335 0.217,14.219 0,14.133L0,40.716Z" style="fill:white;fill-rule:nonzero;"/>
        </g>
        <g transform="matrix(4.16667,0,0,4.16667,1432.12,736.837)">
            <path d="M0,-11.816L0,14.776L-7.224,14.776C-7.243,14.491 -7.281,14.196 -7.281,13.902C-7.284,2.256 -7.254,-9.389 -7.303,-21.034C-7.317,-24.376 -5.214,-25.733 -2.877,-26.112C0.129,-26.601 2.878,-25.274 3.777,-22.703C4.992,-19.226 6.033,-15.699 7.138,-12.191C8.699,-7.226 10.251,-2.258 11.888,2.966C12.156,2.183 12.359,1.627 12.536,1.065C14.958,-6.656 17.375,-14.378 19.795,-22.1C20.925,-25.706 25.212,-27.308 28.744,-25.439C30.214,-24.661 31.015,-23.487 31.139,-21.943C31.166,-21.608 31.166,-21.269 31.166,-20.932C31.167,-9.371 31.167,2.19 31.167,13.751L31.167,14.777L23.878,14.777L23.878,-11.905C23.817,-11.915 23.757,-11.926 23.696,-11.936C23.251,-10.536 22.804,-9.136 22.36,-7.735C20.257,-1.1 18.155,5.536 16.047,12.17C15.928,12.546 15.763,12.913 15.593,13.273C14.915,14.708 13.74,15.468 11.99,15.48C10.258,15.492 8.942,14.844 8.354,13.357C7.602,11.46 6.968,9.521 6.351,7.582C4.316,1.19 2.313,-5.209 0.296,-11.605C0.272,-11.679 0.226,-11.747 0.19,-11.817C0.127,-11.817 0.063,-11.816 0,-11.816" style="fill:white;fill-rule:nonzero;"/>
        </g>
        <g transform="matrix(4.16667,0,0,4.16667,2075.44,798.205)">
            <path d="M0,-40.184C-0.828,-38.89 -1.607,-37.66 -2.398,-36.435C-5.777,-31.2 -9.15,-25.961 -12.557,-20.74C-12.878,-20.247 -12.827,-19.916 -12.528,-19.453C-8.505,-13.225 -4.504,-6.986 -0.5,-0.748C-0.351,-0.516 -0.227,-0.27 -0.021,0.089C-2.748,0.089 -5.336,0.108 -7.922,0.06C-8.174,0.056 -8.484,-0.315 -8.654,-0.578C-12.443,-6.441 -16.217,-12.313 -19.994,-18.183C-20.182,-18.474 -20.377,-18.76 -20.725,-19.285L-20.725,0.041L-28.023,0.041L-28.023,-40.231L-20.813,-40.231L-20.813,-21.125C-20.736,-21.103 -20.659,-21.08 -20.582,-21.058C-20.251,-21.567 -19.917,-22.076 -19.589,-22.587C-15.95,-28.27 -12.317,-33.957 -8.655,-39.628C-8.474,-39.91 -8.043,-40.235 -7.721,-40.242C-5.307,-40.292 -2.891,-40.268 -0.476,-40.265C-0.362,-40.265 -0.25,-40.227 0,-40.184" style="fill:white;fill-rule:nonzero;"/>
        </g>
        <g transform="matrix(4.16667,0,0,4.16667,2180.92,798.582)">
            <path d="M0,-40.313L0,-33.6L-1.026,-33.6C-5.237,-33.6 -9.447,-33.602 -13.657,-33.599C-15.611,-33.598 -16.49,-33.046 -16.646,-31.311C-16.871,-28.798 -16.869,-26.268 -16.968,-23.651L-0.47,-23.651L-0.47,-16.888L-16.645,-16.888C-16.754,-16.784 -16.833,-16.743 -16.832,-16.704C-16.783,-14.15 -16.829,-11.591 -16.639,-9.047C-16.514,-7.389 -15.564,-6.787 -13.703,-6.785C-9.523,-6.781 -5.345,-6.784 -1.165,-6.784L-0.017,-6.784L-0.017,-0.04C-0.313,-0.025 -0.583,0 -0.853,0C-6.022,0.003 -11.194,0.064 -16.361,-0.038C-17.769,-0.066 -19.286,-0.365 -20.541,-0.929C-23.062,-2.063 -23.931,-4.259 -24.105,-6.663C-24.227,-8.315 -24.157,-9.979 -24.157,-11.638C-24.161,-18.471 -24.15,-25.304 -24.164,-32.136C-24.168,-33.935 -23.915,-35.673 -22.901,-37.25C-21.729,-39.074 -19.96,-40.244 -17.646,-40.281C-11.799,-40.377 -5.948,-40.313 0,-40.313" style="fill:white;fill-rule:nonzero;"/>
        </g>
        <g transform="matrix(4.16667,0,0,4.16667,2302.57,798.628)">
            <path d="M0,-40.324L0,-33.611L-1.041,-33.611C-5.501,-33.611 -9.96,-33.614 -14.419,-33.609C-16.099,-33.607 -17.008,-33.155 -17.167,-31.678C-17.379,-29.717 -17.344,-27.703 -17.109,-25.743C-16.949,-24.398 -16.038,-23.949 -14.539,-23.944C-12.154,-23.937 -9.77,-23.949 -7.385,-23.94C-2.885,-23.923 0.167,-21.421 0.347,-17.329C0.507,-13.679 0.495,-10.016 0.351,-6.365C0.204,-2.688 -2.43,-0.181 -6.471,-0.072C-12.377,0.088 -18.291,-0.031 -24.275,-0.031L-24.275,-6.795L-23.211,-6.795C-18.813,-6.795 -14.416,-6.793 -10.019,-6.796C-8.01,-6.797 -7.045,-7.489 -6.916,-9.306C-6.789,-11.097 -6.786,-12.908 -6.923,-14.699C-7.06,-16.477 -8.023,-17.163 -9.973,-17.168C-12.296,-17.174 -14.618,-17.159 -16.94,-17.172C-21.503,-17.197 -24.501,-19.716 -24.667,-23.867C-24.802,-27.21 -24.794,-30.562 -24.674,-33.906C-24.532,-37.834 -21.757,-40.294 -17.449,-40.345C-11.783,-40.412 -6.115,-40.366 -0.448,-40.367C-0.328,-40.367 -0.208,-40.345 0,-40.324" style="fill:white;fill-rule:nonzero;"/>
        </g>
        <g transform="matrix(4.16667,0,0,4.16667,1808.57,659.091)">
            <path d="M0,26.694L0,33.428C-0.251,33.447 -0.459,33.478 -0.667,33.478C-5.994,33.48 -11.32,33.506 -16.646,33.469C-19.686,33.448 -22.209,32.453 -23.435,29.757C-23.942,28.64 -24.262,27.366 -24.27,26.161C-24.333,15.248 -24.309,4.334 -24.31,-6.58C-24.31,-6.634 -24.286,-6.688 -24.258,-6.812L-16.953,-6.812L-16.953,-5.755C-16.953,3.5 -16.957,12.754 -16.946,22.008C-16.945,22.85 -16.934,23.704 -16.779,24.53C-16.485,26.099 -15.653,26.69 -13.904,26.692C-9.661,26.698 -5.419,26.694 -1.176,26.694L0,26.694Z" style="fill:white;fill-rule:nonzero;"/>
        </g>
        <g transform="matrix(4.16667,0,0,4.16667,-331.605,-1146.91)">
            <rect x="370.862" y="426.626" width="7.2" height="40.227" style="fill:white;"/>
        </g>
        <g transform="matrix(-4.16667,0,0,4.16667,3539.85,-1146.84)">
            <rect x="460.974" y="426.595" width="7.2" height="40.273" style="fill:white;"/>
        </g>
        <g transform="matrix(4.16667,0,0,4.16667,1339.06,685.02)">
            <path d="M0,12.369C-1.27,7.317 -2.523,2.327 -3.776,-2.663C-3.849,-2.657 -3.92,-2.651 -3.992,-2.645C-5.244,2.342 -6.495,7.329 -7.76,12.369L0,12.369ZM-12.005,27.221L-19.642,27.221C-19.141,25.458 -18.659,23.752 -18.171,22.046C-15.93,14.194 -13.69,6.342 -11.443,-1.509C-10.635,-4.334 -9.874,-7.172 -8.974,-9.973C-7.866,-13.424 -3.911,-14.852 -0.834,-12.984C0.473,-12.191 1.183,-11.011 1.559,-9.676C3.858,-1.519 6.13,6.645 8.416,14.806C9.467,18.56 10.53,22.31 11.584,26.063C11.683,26.414 11.748,26.772 11.845,27.197L4.231,27.197C3.519,24.565 2.799,21.905 2.056,19.162L-0.643,19.162C-3.43,19.162 -6.217,19.177 -9.003,19.151C-9.589,19.146 -9.862,19.266 -10.007,19.833C-10.634,22.293 -11.327,24.739 -12.005,27.221" style="fill:white;fill-rule:nonzero;"/>
        </g>
        <g transform="matrix(4.16667,0,0,4.16667,1895.74,686.253)">
            <path d="M0,12.084C-1.276,7.002 -2.53,2.011 -3.784,-2.979C-3.852,-2.979 -3.918,-2.977 -3.985,-2.976C-5.24,2.025 -6.495,7.026 -7.765,12.084L0,12.084ZM11.878,26.93L4.237,26.93C3.783,25.258 3.328,23.579 2.871,21.899C2.76,21.49 2.642,21.084 2.526,20.676C2.02,18.867 2.02,18.867 0.021,18.867C-2.951,18.867 -5.925,18.895 -8.896,18.847C-9.638,18.835 -9.907,19.063 -10.064,19.679C-10.679,22.085 -11.341,24.48 -11.994,26.915L-19.631,26.915C-19.285,25.659 -18.96,24.441 -18.613,23.228C-16.235,14.915 -13.854,6.603 -11.469,-1.709C-10.651,-4.561 -9.881,-7.425 -8.981,-10.255C-7.98,-13.409 -4.835,-14.846 -1.669,-13.678C0.123,-13.017 1.06,-11.667 1.523,-10.065C2.836,-5.532 4.077,-0.982 5.349,3.561C7.107,9.845 8.869,16.128 10.628,22.412C11.038,23.878 11.44,25.346 11.878,26.93" style="fill:white;fill-rule:nonzero;"/>
        </g>
    </g>
</svg>
